<svg id="Layer_1" data-name="Layer 1" xmlns="http://www.w3.org/2000/svg" width="7in" height="3.021in" viewBox="0 0 504 217.489"><title>logo</title><path d="M86.2,46.715a16.19,16.19,0,0,0-6,.3c.3-1.2.6-2.4.75-3.3,3-19.2-19.2-18-21.6-16.049,0,8.1-16.2,37.8-19.649,67.647-3.6,32.549,9.45,56.1,31.949,58.8,16.649,2.4,33.449-19.649,37.5-49.348S102.849,49.115,86.2,46.715Zm-7.05,92.4c-10.35-1.5-16.2-21.149-13.049-44.1.45-3.3,1.05-6.45,1.8-9.6,4.05,20.4,18.6,40.048,24.6,45.6C88.449,136.711,83.649,139.861,79.149,139.111Zm24.149-38.7a79.869,79.869,0,0,1-7.35,24.9c-15.75-13.8-24.149-65.7-8.1-69a7.248,7.248,0,0,1,2.55,0C100.6,57.815,106.448,77.464,103.3,100.413Zm52.2-10.05c-8.85-1.2-15.149,7.5-19.5,16.649.15-3.45.45-6.6.6-9.149,1.95-24.749-23.549-19.049-23.549-19.049,3.6,13.5-15,118.945,8.7,118.345,4.5-.15,11.7-1.35,14.4-10.95-3.15-1.95-3.15-21.6-2.25-42.9C158.5,130.112,172,92.463,155.5,90.363Zm-21.3,45.3v-.3l.15.15s7.5-40.5,16.5-39.9C158.8,96.213,149.349,125.462,134.2,135.662Zm316.79-27.3-.6-3.6s-19.949-13.2-36.448-4.05c-6.6-10.649-11.1-20.7-7.949-28.5,0,0-33.149,5.85-12.6,37.948.385.595.77,1.154,1.155,1.732-2.894,11.479-8.625,30.43-16.606,38.916-11.85,12.75-7.649-12.3-4.5-36.9,2.4-19.8-13.649-20.849-20.1-20.4-.149,0-6.749.15-6.449-3.9,1.5-19.049-20.249-9.75-20.249-9.75,2.635,8.659-5.642,18.89,11.08,22.442-8.3,13.323-45.824,52.828-41.978,18.506,5.4.15,15-.75,19.5-8.1,6.6-10.649,1.2-18-4.8-19.949-7.649-2.4-32.249-1.05-36.749,25.949-.072.428-.128.841-.189,1.258-.51.691-1.04,1.376-1.611,2.042a21.094,21.094,0,0,1-2.7,2.55c-.3.3-.6.45-.75.6-.3.15-.6.15-.75.3-.15,0-.3,0-.3.15h-.45l-.45.15h-.15c-.15,0-.15-.15-.3-.15l-.15-.15a9.316,9.316,0,0,1-.45-1.5c-.15-1.35-.15-3.15-.15-4.8.15-1.8.3-3.75.6-5.7v-.9a24.463,24.463,0,0,0,.3-3.3c.9-7.35,2.1-18.6-4.2-18.75-5.1-.15-10.8,8.1-13.8,13.35v-.75c1.8-29.549-21.749-22.8-21.749-22.8,1.368,6.484-.543,17.853-1.981,29.165-13.083,16.087-40,40.659-36.718,11.333,5.4.15,15-.75,19.5-8.1,6.6-10.649,1.2-18-4.8-19.949-7.65-2.4-32.249-1.05-36.749,25.949-6.577,39.333,31.262,33.783,57.769-.049-1.119,13.606.1,25.019,10.929,24.648,4.05-.15,10.35-1.5,13.049-12l1.35-4.95c.75-2.85,1.95-7.2,3.6-12.149.75-2.55,1.8-5.1,2.85-7.8.6-1.35,1.2-2.7,1.95-4.05a28.213,28.213,0,0,1,2.1-3.6l.9-.9c.3-.3.9-.6,1.2-.45a1.184,1.184,0,0,1,.75.9,40.813,40.813,0,0,1,.15,4.5c0,1.65-.15,3.45-.3,5.25-.3,3.6-.6,7.2-.75,10.95a40.246,40.246,0,0,0,.3,5.85,9.788,9.788,0,0,0,1.2,3.3,3.617,3.617,0,0,0,1.5,1.5,2.882,2.882,0,0,0,1.8.6h1.5a.147.147,0,0,0,.15-.15h.45c.3-.15.45-.3.75-.3.45-.15.75-.45,1.2-.6.3-.3.75-.45,1.05-.75a17.408,17.408,0,0,0,1.8-1.634c-.223,34.758,45.063,20.148,68.762-23.865a88.911,88.911,0,0,0,8.932.6c-2.25,21.6-13.05,63.447,6.9,64.347,17.247.8,29.066-20.266,36.083-38.31a41.069,41.069,0,0,0-.682,7.711,24.841,24.841,0,0,0,.45,4.8,3.74,3.74,0,0,0,.149,1.2v.6l.15.45.149.6v.3l.15.3c0,.3.15.75.15,1.2a24.446,24.446,0,0,0,4.2,8.1,24.942,24.942,0,0,0,5.7,5.1,23.615,23.615,0,0,0,5.25,2.55,18.326,18.326,0,0,0,3.749,1.05.9.9,0,0,0,.6.15h.149c7.351,1.65,14.25-1.65,18-3.45,18.749-11.1-.6-33.6-14.7-54.748C427.89,95.913,450.989,108.363,450.989,108.363Zm-143.246-7.35c5.85.15,4.65,6.75,3.6,8.85-1.5,3-5.249,7.8-15,7.2C299.193,100.413,305.943,100.863,307.743,101.013Zm-108,0c5.85.15,4.649,6.75,3.6,8.85-1.5,3-5.25,7.8-15,7.2C191.2,100.413,197.948,100.863,199.748,101.013Zm198.293,16.8c-.267.486-.513.982-.763,1.475q.393-1.217.75-2.367c.1.144.209.3.314.442Zm17.4,33.9c-1.05,3.3-3.45,3.15-6.3,2.1l-.9-.45a20.564,20.564,0,0,1-4.051-3.3,15.488,15.488,0,0,1-2.85-5.4c-.3-1.05-.6-2.4-.9-3.6l-.45-3.9a30.725,30.725,0,0,1,.75-8.25,29.757,29.757,0,0,1,1.95-5.85C411.24,134.312,418.141,142.861,415.44,151.711Z" style="fill:#231f20"/></svg>